<?xml version="1.0" encoding="UTF-8"?>
<svg version="1.1" viewBox="0 0 937 2048" width="1280" height="1280" xmlns="http://www.w3.org/2000/svg">
<path transform="translate(0)" d="m0 0h937v2048h-937z" fill="#7B3BFD"/>
<path transform="translate(187,843)" d="m0 0h81v28l6-1h13l7 10 7 11 11-20h21l6 10 1 2 1-12 29-1v3l14-4h9l12 3 10 6 8 10 6 13 6-12 9-10 11-7 11-3h13l13 4 9 7 6 7 5 12 1 4 1-32h30v3l10-4 5-1h10l10 3 9 6 5 7 4 12 1 8v38l1-1 11-13 8 6 10 5 9 1 4-1 1-2-6-2-15-6-11-7-6-7-4-11v-8l3-10 6-8 9-6 8-3 6-1h11l12 3 10 5 11 9-6 8-9 11-2 3-5-2-6-4-6-2-9-1v2l9 3 18 8 7 6 3-16 7-14 6-7 10-7 9-4 6-1h12l11 3 8 5 5 4 7 11 4 14v19l-2 8-10 1 12 21-1 3-13 8-10 4-5 1h-20l-12-4-10-7-9-10-2-2-3 7-6 7-10 6-11 3h-18l-15-5-11-8-1 11-1 1h-32l-1-65-2-4-7 1-7 5-1 63h-33l-1-42-1 5h-11l12 21-1 4-9 6-8 4-10 3h-20l-12-4-9-6-9-9-6-12-1-3-4 11-7 9-7 7-12 6-4 1h-15l-4-1-1 2-1 32-31 1-1-1-1-43-5 9h-20l-4-5-11-17-1-1-13 22-1 1h-98l-1-17v-109z" fill="#030202"/>
<path transform="translate(508,1031)" d="m0 0h32l1 2 1 58 14-17 4-5h21l7 14-2 4-9 11-10 12 1 4 15 24-2-9v-22l5-15 8-11 10-8 8-4 9-2h11l12 3 9 6 7 7 6 13 2 10v14l-2 11h-11l12 21 1 3-14 9-10 4-5 1h-20l-12-4-9-6-5-5-6 10-3 4h-20l-6-9-13-21-2-1-1 3-1 27-1 1h-32l-1-12-8 7-12 5-3 1h-20l-11-4-10-6-9-10-5-11-1-4-2 34h-29v-3l-10 3v2h-17l-11-4-9-8-4-8-2-9 1-12 4-9 7-8 3-2-5-8-8-2h-10l-5 6-2 4v57l-1 1h-32v-96h-24v95l-1 1h-32l-1-95-32-1v-31h98l1 27h20l2 2 9-3h11l13 4 2 2 10-4 11-2h11l9 2 9 5 7 7 5 10 2 8 1 9 3-11 6-11 5-6 8-6 11-5 9-2h11l9 2 11 6 7 6z" fill="#030202"/>
<path transform="translate(381,879)" d="m0 0h16l9 4 5 5 4 5 4 10 1 5v22l-4 12-6 9-8 7-11 4h-10l-12-5-4-3-1 41h-14v-115h12l1 8 4-2z" fill="#FCFBFE"/>
<path transform="translate(709,1067)" d="m0 0h11l13 4 1 4-7 26-8-1h-10l-5 6-1 2-1 59-1 1h-32v-99l29-1 2 2z" fill="#030202"/>
<path transform="translate(379,1077)" d="m0 0h18l9 4 7 8 3 8 1 6v55l-1 1h-10l-1-1-1-8-9 5-8 4-4 1h-13l-10-5-5-7-1-3v-14l4-8 7-6 12-5 13-3 13-1-3-12-4-5-6-2h-8l-10 3-8 4-3-1-3-6v-3l14-7z" fill="#FBF9FE"/>
<path transform="translate(618,1077)" d="m0 0h17l9 4 7 6 6 12 2 14-1 9-53 1 2 9 5 8 6 5 5 2h16l10-4 3 1 3 6-2 4-13 5-5 1h-12l-13-4-9-7-6-8-4-11-1-5v-14l4-13 6-9 9-8z" fill="#FAF8FE"/>
<path transform="translate(705,879)" d="m0 0h17l10 4 7 7 5 10 2 12v8l-1 4-53 1 4 13 6 7 8 4h16l10-4 3 1 3 5-1 4-10 5-9 2h-12l-10-3-10-6-7-9-4-9-2-10v-10l3-12 4-8 9-10z" fill="#FBF9FE"/>
<path transform="translate(464,879)" d="m0 0h17l9 4 7 6 5 10 2 8v17h-54l4 13 4 6 8 5 3 1h16l10-4h2l4 7-1 3-11 5-8 2h-12l-13-4-8-6-6-7-4-8-2-8v-17l3-10 5-9 5-6 9-6z" fill="#FBF9FE"/>
<path transform="translate(196,853)" d="m0 0h62l1 2v9l-4 1h-44l-1 33h40l1 1v11h-41v39h50v11l-1 1h-63z" fill="#F9F6FE"/>
<path transform="translate(517,1041)" d="m0 0h14l1 78 11-14 13-16 9-11h15l-6 9-13 15-6 9 11 18 16 25 2 4-1 1h-13l-3-3-21-35-5 5-9 11-1 22h-13l-1-1z" fill="#FBFAFE"/>
<path transform="translate(555,879)" d="m0 0h17l6 3 7 8 3 11v60h-13l-1-1-1-58-4-8-4-2h-12l-9 5-5 5-1 58-1 1h-12l-1-1v-80h11l1 1 1 10 10-8z" fill="#F6F2FE"/>
<path transform="translate(215,1051)" d="m0 0h80v11l-1 1h-32v96h-14v-96h-32l-1-1z" fill="#F9F7FE"/>
<path transform="translate(268,880)" d="m0 0h15l17 29h2l15-28 1-1h14l-2 5-16 27-4 6 1 5 13 20 10 16v2h-14l-7-10-13-21v-2h-2l-2 5-10 18-6 9-1 1h-9l-4-1 2-5 12-19 10-16-1-5-15-23-6-10z" fill="#F9F6FE"/>
<path transform="translate(382,890)" d="m0 0h7l8 3 6 7 3 11v16l-3 10-4 6-6 5-5 2h-10l-9-4-5-4v-42l8-6z" fill="#030202"/>
<path transform="translate(628,879)" d="m0 0h18l11 4 5 4-2 4-3 4-6-2-5-2-11-1-7 2-3 3-1 8 2 4 10 5 15 6 6 4 6 7 2 7-1 9-3 6-8 7-7 3-5 1h-12l-13-4-8-5-2-4 5-6 5 2 9 4 5 1h11l6-3h2l1-4v-8l-5-5-18-8-8-4-6-5-3-6v-12l5-8 6-5z" fill="#FAF8FE"/>
<path transform="translate(219,874)" d="m0 0h46l-2 5-2 4 1 5 11 18 7 11-1 4-11 18h-49v-19h41v-31h-41z" fill="#7B3BFD"/>
<path transform="translate(466,1077)" d="m0 0h17l10 4 5 4-2 4-4 5-4-2-8-3h-9l-8 3-5 4-5 9-2 11 1 12 4 10 2 4 4 2 7 3h13l10-5h3l4 5-1 4-5 4-9 4-4 1h-12l-10-3-8-5-5-5-5-7-3-9-1-5v-15l3-11 6-10 7-7 10-5z" fill="#FAF8FE"/>
<path transform="translate(507,1090)" d="m0 0h1v54l-4-4-8-11-4 1-8 7-5 2h-8l-5-3-4-5-2-5v-15l4-8 5-4 2-1h8l7 4 7 5 11-13z" fill="#7B3BFD"/>
<path transform="translate(708,1077)" d="m0 0h13l2 2-3 11h-11l-8 4-7 10-1 3-1 51-1 1h-12l-1-1v-80h12l2 13 7-9 6-4z" fill="#F4EFFE"/>
<path transform="translate(335,1077)" d="m0 0h13l2 2-3 11h-11l-8 4-7 10-1 2-1 53h-13l-1-1v-80h12l2 13 6-8 7-5z" fill="#F5F1FE"/>
<path transform="translate(401,1117)" d="m0 0h2v22l-10 7-5 2-10 1-7-3-3-4-1-7 3-7 5-4 10-4z" fill="#030202"/>
<path transform="translate(381,900)" d="m0 0h9l5 6 2 9v9l-3 10-5 6-9 1-6-3-1-2v-30z" fill="#7B3BFD"/>
<path transform="translate(467,890)" d="m0 0h11l6 3 5 6 3 10v4h-42l4-13 5-6z" fill="#030202"/>
<path transform="translate(709,890)" d="m0 0h10l8 4 5 8 1 4v7h-41l2-10 4-6 6-5z" fill="#030202"/>
<path transform="translate(622,1088)" d="m0 0h10l8 4 4 6 2 8v5h-41l1-8 5-8 6-5z" fill="#030202"/>
<path transform="translate(340,886)" d="m0 0h1v66l-4-4-11-18-6-9 1-4 17-28z" fill="#7B3BFD"/>
<path transform="translate(462,933)" d="m0 0h34l-5 4-10 4h-11l-7-5z" fill="#7B3BFD"/>
<path transform="translate(616,1131)" d="m0 0h34l-3 3-11 5h-11l-5-3z" fill="#7B3BFD"/>
<path transform="translate(704,933)" d="m0 0h33l-3 3-11 5h-11l-6-4z" fill="#7B3BFD"/>
<path transform="translate(388,1129)" d="m0 0h6l-1 5-6 4-9 1-1-4 5-4z" fill="#7B3BFD"/>
<path transform="translate(380,1098)" d="m0 0h11l-1 2-19 5-5 1 3-3z" fill="#7B3BFD"/>
<path transform="translate(625,1097)" d="m0 0 7 1 2 4h-16l4-4z" fill="#7B3BFD"/>
<path transform="translate(470,899)" d="m0 0 7 1 3 2-1 2h-15l3-4z" fill="#7B3BFD"/>
<path transform="translate(712,899)" d="m0 0 7 1 2 4h-16l4-4z" fill="#7B3BFD"/>
</svg>
